<svg viewbox="0 0 219 581" fill="none" xmlns="http://www.w3.org/2000/svg"><mask id="prefix__a" maskUnits="userSpaceOnUse" x="0" y="0" ><path d="M0 243.741V.074c32.094.011 62.87 12.845 85.564 35.68 22.694 22.836 35.448 53.803 35.46 86.097.012 32.312-12.731 63.305-35.427 86.163C62.901 230.872 32.112 243.724 0 243.741zM163.014 368.384c-11.661-42.102-38.933-78.095-76.193-100.559 38.373-23.149 66.117-60.601 77.202-104.217a121.515 121.515 0 0140.5 44.277 122.401 122.401 0 0114.49 58.383 122.4 122.4 0 01-15.056 58.238 121.494 121.494 0 01-40.928 43.878zM0 531.914V288.247c32.113 0 62.91 12.836 85.616 35.684 22.707 22.849 35.463 53.838 35.463 86.15 0 32.312-12.756 63.301-35.463 86.149S32.113 531.914 0 531.914zM0 820.032V576.496c32.097 0 62.88 12.83 85.577 35.667 22.696 22.838 35.447 53.813 35.447 86.11s-12.751 63.272-35.447 86.11C62.88 807.22 32.097 820.05 0 820.05zM163.014 656.557c-11.662-42.1-38.934-78.093-76.193-100.555 38.368-23.153 66.106-60.606 77.186-104.221a121.52 121.52 0 0140.498 44.278 122.401 122.401 0 0114.49 58.383 122.397 122.397 0 01-15.055 58.237 121.505 121.505 0 01-40.926 43.878zM163.014 947.661c-11.662-42.1-38.934-78.092-76.193-100.555 38.368-23.153 66.106-60.606 77.186-104.221a121.52 121.52 0 0140.498 44.278 122.401 122.401 0 0114.49 58.383 122.395 122.395 0 01-15.055 58.237 121.505 121.505 0 01-40.926 43.878z" fill="#fff"/></mask><g mask="url(#prefix__a)" transform="translate(0 -122)"><path fill="#fff" fill-opacity=".2" d="M0 122h229v581H0z"/></g></svg>