<svg width="1440" height="202" viewBox="0 0 1440 202" fill="none" xmlns="http://www.w3.org/2000/svg">
<path d="M59.2167 209.471L-163.823 209.471C-163.686 179.893 -151.876 151.573 -130.977 130.707C-110.077 109.841 -81.7903 98.1269 -52.3031 98.1269C-22.8158 98.1269 5.47128 109.841 26.3704 130.707C47.2695 151.573 59.0794 179.893 59.2167 209.471V209.471Z" fill="white" fill-opacity="0.1"/>
<path d="M173.296 58.858C134.759 69.631 101.813 94.8269 81.2518 129.25C60.0584 93.803 25.7764 68.177 -14.1457 57.9395C-3.96875 42.2632 9.96605 29.3982 26.3829 20.5224C42.7998 11.6467 61.1741 7.04374 79.8236 7.13512C98.473 7.2265 116.802 12.0092 133.131 21.0454C149.461 30.0816 163.27 43.0827 173.294 58.858L173.296 58.858Z" fill="white" fill-opacity="0.1"/>
<path d="M322.985 209.471L99.9456 209.471C100.083 179.893 111.893 151.573 132.792 130.707C153.691 109.841 181.978 98.1269 211.465 98.1269C240.953 98.1269 269.24 109.841 290.139 130.707C311.038 151.573 322.848 179.893 322.985 209.471V209.471Z" fill="white" fill-opacity="0.1"/>
<path d="M586.71 209.473L363.775 209.473C363.775 179.819 375.518 151.38 396.423 130.411C417.327 109.442 445.679 97.6621 475.242 97.6621C504.806 97.6621 533.158 109.442 554.062 130.411C574.966 151.38 586.71 179.819 586.71 209.473V209.473Z" fill="white" fill-opacity="0.1"/>
<path d="M437.074 58.8577C398.538 69.6318 365.592 94.8275 345.03 129.25C323.838 93.8024 289.557 68.1761 249.635 57.9392C259.813 42.264 273.748 29.4001 290.165 20.5251C306.581 11.6502 324.955 7.04765 343.604 7.13903C362.253 7.2304 380.581 12.0127 396.911 21.0481C413.24 30.0836 427.05 43.0835 437.074 58.8577V58.8577Z" fill="white" fill-opacity="0.1"/>
<path d="M703.527 58.8577C664.99 69.6318 632.044 94.8275 611.482 129.25C590.29 93.8024 556.009 68.1761 516.087 57.9392C526.265 42.264 540.2 29.4001 556.617 20.5251C573.034 11.6502 591.408 7.04765 610.057 7.13903C628.706 7.2304 647.034 12.0127 663.363 21.0481C679.693 30.0836 693.502 43.0835 703.527 58.8577V58.8577Z" fill="white" fill-opacity="0.1"/>
<g opacity="0.1" clip-path="url(#clip0_278_11)">
<path d="M847.212 201.998L624.01 201.998C624.147 172.468 635.966 144.195 656.88 123.362C677.794 102.53 706.102 90.835 735.611 90.835C765.12 90.835 793.427 102.53 814.342 123.362C835.256 144.195 847.075 172.468 847.212 201.998V201.998Z" fill="white"/>
<path d="M961.375 51.6295C922.81 62.385 889.839 87.54 869.263 121.907C848.054 86.5179 813.747 60.9334 773.796 50.7125C783.98 35.0616 797.925 22.2175 814.354 13.3562C830.783 4.49482 849.171 -0.100646 867.834 -0.00941395C886.497 0.0818185 904.839 4.85678 921.181 13.8783C937.522 22.8998 951.341 35.8798 961.372 51.6295L961.375 51.6295Z" fill="white"/>
<path d="M1111.17 201.998L887.971 201.998C888.108 172.468 899.927 144.195 920.841 123.362C941.756 102.53 970.063 90.835 999.572 90.835C1029.08 90.835 1057.39 102.53 1078.3 123.362C1099.22 144.195 1111.04 172.468 1111.17 201.998V201.998Z" fill="white"/>
<path d="M1375.09 202L1151.99 202C1151.99 172.394 1163.75 144.001 1184.66 123.066C1205.58 102.132 1233.96 90.3706 1263.54 90.3706C1293.13 90.3706 1321.5 102.132 1342.42 123.066C1363.34 144.001 1375.09 172.394 1375.09 202V202Z" fill="white"/>
<path d="M1225.35 51.6293C1186.78 62.3859 1153.81 87.5406 1133.23 121.907C1112.03 86.5172 1077.72 60.9325 1037.77 50.7123C1047.95 35.0625 1061.9 22.2194 1078.33 13.3589C1094.76 4.49832 1113.14 -0.0967379 1131.81 -0.00550765C1150.47 0.0857226 1168.81 4.86028 1185.15 13.881C1201.49 22.9018 1215.31 35.8807 1225.35 51.6293V51.6293Z" fill="white"/>
<path d="M1491.99 51.6293C1453.43 62.3859 1420.46 87.5406 1399.88 121.907C1378.67 86.5172 1344.37 60.9325 1304.42 50.7123C1314.6 35.0625 1328.55 22.2194 1344.98 13.3589C1361.4 4.49832 1379.79 -0.0967379 1398.45 -0.00550765C1417.12 0.0857226 1435.46 4.86028 1451.8 13.881C1468.14 22.9018 1481.96 35.8807 1491.99 51.6293V51.6293Z" fill="white"/>
</g>
<defs>
<clipPath id="clip0_278_11">
<rect width="202" height="868" fill="white" transform="translate(1492) rotate(90)"/>
</clipPath>
</defs>
</svg>
