<svg width="3778.279" height="208.974" fill="none" xmlns="http://www.w3.org/2000/svg"><path d="M223.04 209.472H0c.137-29.578 11.947-57.898 32.846-78.764 20.9-20.866 49.187-32.58 78.674-32.58 29.487 0 57.774 11.714 78.673 32.58 20.9 20.866 32.71 49.186 32.847 78.764zM337.119 58.859c-38.537 10.773-71.483 35.969-92.044 70.392-21.194-35.447-55.476-61.073-95.398-71.31a111.618 111.618 0 0140.529-37.418 111.215 111.215 0 0153.44-13.387 111.216 111.216 0 0153.308 13.91 111.629 111.629 0 0140.163 37.813zM486.808 209.472h-223.04c.138-29.578 11.948-57.898 32.847-78.764 20.899-20.866 49.186-32.58 78.673-32.58 29.488 0 57.775 11.714 78.674 32.58 20.899 20.866 32.709 49.186 32.846 78.764zM750.533 209.474H527.598c0-29.654 11.743-58.093 32.648-79.062 20.904-20.97 49.256-32.75 78.819-32.75 29.564 0 57.916 11.78 78.82 32.75 20.904 20.969 32.648 49.408 32.648 79.062zM600.897 58.858c-38.536 10.775-71.482 35.97-92.044 70.393-21.192-35.448-55.473-61.074-95.395-71.311a111.624 111.624 0 0140.53-37.414A111.215 111.215 0 01507.427 7.14a111.227 111.227 0 0153.307 13.909 111.632 111.632 0 0140.163 37.81zM867.35 58.858c-38.537 10.775-71.483 35.97-92.045 70.393-21.192-35.448-55.473-61.074-95.395-71.311a111.624 111.624 0 0140.53-37.414A111.222 111.222 0 01773.88 7.14a111.22 111.22 0 0153.306 13.909 111.635 111.635 0 0140.164 37.81z" fill="#fff" fill-opacity=".1"/><g opacity=".1" clip-path="url(#prefix__clip0_278_11)" transform="translate(163.823 8)" fill="#fff"><path d="M847.212 201.998H624.01a111.725 111.725 0 0132.87-78.636 111.561 111.561 0 0178.731-32.527 111.563 111.563 0 0178.731 32.527 111.725 111.725 0 0132.87 78.636zM961.375 51.63a156.307 156.307 0 00-92.112 70.277 156.538 156.538 0 00-95.467-71.194 111.593 111.593 0 0140.558-37.357 111.506 111.506 0 01106.827.522 111.603 111.603 0 0140.191 37.751zM1111.17 201.998H887.971a111.725 111.725 0 0132.87-78.636 111.563 111.563 0 0178.731-32.527 111.549 111.549 0 0178.728 32.527 111.67 111.67 0 0132.87 78.636zM1375.09 202h-223.1a111.71 111.71 0 0132.67-78.934 111.526 111.526 0 0178.88-32.695c29.59 0 57.96 11.761 78.88 32.695A111.667 111.667 0 011375.09 202zM1225.35 51.63a156.327 156.327 0 00-92.12 70.277 156.497 156.497 0 00-95.46-71.195 111.554 111.554 0 0194.04-50.718c18.66.092 37 4.866 53.34 13.887 16.34 9.02 30.16 22 40.2 37.748zM1491.99 51.63a156.336 156.336 0 00-92.11 70.277 156.525 156.525 0 00-95.46-71.195 111.554 111.554 0 0140.56-37.353 111.501 111.501 0 01106.82.522c16.34 9.02 30.16 22 40.19 37.748z"/></g><g opacity=".1" clip-path="url(#prefix__clip0_278_11-4)" transform="translate(694.438 8)"><path d="M847.212 201.998H624.01a111.725 111.725 0 0132.87-78.636 111.561 111.561 0 0178.731-32.527 111.563 111.563 0 0178.731 32.527 111.725 111.725 0 0132.87 78.636zM961.375 51.63a156.307 156.307 0 00-92.112 70.277 156.538 156.538 0 00-95.467-71.194 111.593 111.593 0 0140.558-37.357 111.506 111.506 0 01106.827.522 111.603 111.603 0 0140.191 37.751z"/><path d="M1111.17 201.998H887.971a111.725 111.725 0 0132.87-78.636 111.563 111.563 0 0178.731-32.527 111.549 111.549 0 0178.728 32.527 111.67 111.67 0 0132.87 78.636zM1375.09 202h-223.1a111.71 111.71 0 0132.67-78.934 111.526 111.526 0 0178.88-32.695c29.59 0 57.96 11.761 78.88 32.695A111.667 111.667 0 011375.09 202zM1225.35 51.63a156.327 156.327 0 00-92.12 70.277 156.497 156.497 0 00-95.46-71.195 111.554 111.554 0 0194.04-50.718c18.66.092 37 4.866 53.34 13.887 16.34 9.02 30.16 22 40.2 37.748zM1491.99 51.63a156.336 156.336 0 00-92.11 70.277 156.525 156.525 0 00-95.46-71.195 111.554 111.554 0 0140.56-37.353 111.501 111.501 0 01106.82.522c16.34 9.02 30.16 22 40.19 37.748z" fill="#fff"/></g><g opacity=".1" clip-path="url(#prefix__clip0_278_11-4-5)" transform="translate(1225.053 8)"><path d="M847.212 201.998H624.01a111.725 111.725 0 0132.87-78.636 111.561 111.561 0 0178.731-32.527 111.563 111.563 0 0178.731 32.527 111.725 111.725 0 0132.87 78.636zM961.375 51.63a156.307 156.307 0 00-92.112 70.277 156.538 156.538 0 00-95.467-71.194 111.593 111.593 0 0140.558-37.357 111.506 111.506 0 01106.827.522 111.603 111.603 0 0140.191 37.751z"/><path d="M1111.17 201.998H887.971a111.725 111.725 0 0132.87-78.636 111.563 111.563 0 0178.731-32.527 111.549 111.549 0 0178.728 32.527 111.67 111.67 0 0132.87 78.636zM1375.09 202h-223.1a111.71 111.71 0 0132.67-78.934 111.526 111.526 0 0178.88-32.695c29.59 0 57.96 11.761 78.88 32.695A111.667 111.667 0 011375.09 202zM1225.35 51.63a156.327 156.327 0 00-92.12 70.277 156.497 156.497 0 00-95.46-71.195 111.554 111.554 0 0194.04-50.718c18.66.092 37 4.866 53.34 13.887 16.34 9.02 30.16 22 40.2 37.748zM1491.99 51.63a156.336 156.336 0 00-92.11 70.277 156.525 156.525 0 00-95.46-71.195 111.554 111.554 0 0140.56-37.353 111.501 111.501 0 01106.82.522c16.34 9.02 30.16 22 40.19 37.748z" fill="#fff"/></g><g opacity=".1" clip-path="url(#prefix__clip0_278_11-4-5-4)" transform="translate(1755.671 8)"><path d="M847.212 201.998H624.01a111.725 111.725 0 0132.87-78.636 111.561 111.561 0 0178.731-32.527 111.563 111.563 0 0178.731 32.527 111.725 111.725 0 0132.87 78.636zM961.375 51.63a156.307 156.307 0 00-92.112 70.277 156.538 156.538 0 00-95.467-71.194 111.593 111.593 0 0140.558-37.357 111.506 111.506 0 01106.827.522 111.603 111.603 0 0140.191 37.751z"/><path d="M1111.17 201.998H887.971a111.725 111.725 0 0132.87-78.636 111.563 111.563 0 0178.731-32.527 111.549 111.549 0 0178.728 32.527 111.67 111.67 0 0132.87 78.636zM1375.09 202h-223.1a111.71 111.71 0 0132.67-78.934 111.526 111.526 0 0178.88-32.695c29.59 0 57.96 11.761 78.88 32.695A111.667 111.667 0 011375.09 202zM1225.35 51.63a156.327 156.327 0 00-92.12 70.277 156.497 156.497 0 00-95.46-71.195 111.554 111.554 0 0194.04-50.718c18.66.092 37 4.866 53.34 13.887 16.34 9.02 30.16 22 40.2 37.748zM1491.99 51.63a156.336 156.336 0 00-92.11 70.277 156.525 156.525 0 00-95.46-71.195 111.554 111.554 0 0140.56-37.353 111.501 111.501 0 01106.82.522c16.34 9.02 30.16 22 40.19 37.748z" fill="#fff"/></g><g opacity=".1" clip-path="url(#prefix__clip0_278_11-4-5-4-3)" transform="translate(2286.289)"><path d="M847.212 201.998H624.01a111.725 111.725 0 0132.87-78.636 111.561 111.561 0 0178.731-32.527 111.563 111.563 0 0178.731 32.527 111.725 111.725 0 0132.87 78.636zM961.375 51.63a156.307 156.307 0 00-92.112 70.277 156.538 156.538 0 00-95.467-71.194 111.593 111.593 0 0140.558-37.357 111.506 111.506 0 01106.827.522 111.603 111.603 0 0140.191 37.751z"/><path d="M1111.17 201.998H887.971a111.725 111.725 0 0132.87-78.636 111.563 111.563 0 0178.731-32.527 111.549 111.549 0 0178.728 32.527 111.67 111.67 0 0132.87 78.636zM1375.09 202h-223.1a111.71 111.71 0 0132.67-78.934 111.526 111.526 0 0178.88-32.695c29.59 0 57.96 11.761 78.88 32.695A111.667 111.667 0 011375.09 202zM1225.35 51.63a156.327 156.327 0 00-92.12 70.277 156.497 156.497 0 00-95.46-71.195 111.554 111.554 0 0194.04-50.718c18.66.092 37 4.866 53.34 13.887 16.34 9.02 30.16 22 40.2 37.748zM1491.99 51.63a156.336 156.336 0 00-92.11 70.277 156.525 156.525 0 00-95.46-71.195 111.554 111.554 0 0140.56-37.353 111.501 111.501 0 01106.82.522c16.34 9.02 30.16 22 40.19 37.748z" fill="#fff"/></g><defs id="prefix__defs31"><clipPath id="prefix__clip0_278_11"><path fill="#fff" transform="rotate(90 746 746)" id="prefix__rect28" d="M0 0h202v868H0z"/></clipPath><clipPath id="prefix__clip0_278_11-4"><path fill="#fff" transform="rotate(90 746 746)" id="prefix__rect28-8" d="M0 0h202v868H0z"/></clipPath><clipPath id="prefix__clip0_278_11-4-5"><path fill="#fff" transform="rotate(90 746 746)" id="prefix__rect28-8-4" d="M0 0h202v868H0z"/></clipPath><clipPath id="prefix__clip0_278_11-4-5-4"><path fill="#fff" transform="rotate(90 746 746)" id="prefix__rect28-8-4-7" d="M0 0h202v868H0z"/></clipPath><clipPath id="prefix__clip0_278_11-4-5-4-3"><path fill="#fff" transform="rotate(90 746 746)" id="prefix__rect28-8-4-7-0" d="M0 0h202v868H0z"/></clipPath></defs></svg>